<svg id="Layer_1" data-name="Layer 1" xmlns="http://www.w3.org/2000/svg" viewBox="0 0 891.1 223.08"><defs><style>.cls-1{fill:#33bada;}.cls-2{fill:#59c7e2;}.cls-3{fill:#4b0081;}.cls-4{fill:#fff;}</style></defs><path class="cls-1" d="M1049,948s23.16-6.09,45,4.8-.46,14.69-2.93,15-20.82,0-20.82,0l-9.89-2.47-5.89-2.56-4.28-4.28-1.24-1.9V948Z" transform="translate(-632.15 -788.93)"/><path class="cls-2" d="M1049.66,952.75s15.69,18.4,44.43,0c0,0,18.78-7.7,28.89-2.14s7.16,4.09,6.88,5.32-3.24,15.88-3.24,15.88l-18.73,12.93-26.52,3.81-16-5.14-10-6.37-8.06-6.27L1046,962l.67-3.61-.1-2.48-.57-2.85Z" transform="translate(-632.15 -788.93)"/><circle class="cls-1" cx="465.62" cy="143.1" r="3.28"/><circle class="cls-1" cx="463.71" cy="154.5" r="2.52"/><circle class="cls-1" cx="470.94" cy="150.99" r="1.38"/><path class="cls-3" d="M635,892.66c.94-6.61,4-9.45,11.11-9.45h7.79v-2.36c0-30.49,16.07-46.8,51.52-46.8h27.42l-3.07,20.56c-1,6.62-4,9.46-10.88,9.46h-9.21c-13.95,0-18.2,6.14-18.2,17.25v1.89h37.58L726,903.77c-.94,6.62-4,9.45-10.87,9.45H691.23v96.66H653.89V913.22H632.15Z" transform="translate(-632.15 -788.93)"/><path class="cls-3" d="M729.75,967.58c0-23.63,13.47-35.45,39.94-35.45H816v-6.85c.24-8.75-3.78-12.06-12.29-12.06H750.55c-6.86,0-9.93-2.83-10.87-9.45l-3.08-20.56h64c40.88,0,52.7,16.54,52.7,45.14v81.53h-21.5c-5.91,0-8-1.42-9.69-6.14l-2.37-7.57h-.94c-5.67,10.17-17.49,15.84-33.33,15.84H769.69c-24.81,0-39.94-10.4-39.94-35Zm61.68,15.36c17,0,24.58-5.67,24.58-17.72v-7.33H777c-7.09,0-9.93,2.36-9.93,9v6.85c0,6.62,2.84,9.22,9.93,9.22Z" transform="translate(-632.15 -788.93)"/><path class="cls-3" d="M912.66,837.13v57.42h1c5.67-8.74,16.31-13.47,31-13.47h12.52c29.07,0,44.2,16.07,44.2,46.8v82H964v-78.7c0-14.41-5.68-20.08-21.51-20.08h-8.27c-15.84,0-21.51,5.9-21.51,20.08v78.7H875.32V837.13Z" transform="translate(-632.15 -788.93)"/><path class="cls-3" d="M1154,963.33c0,31.43-18,48.68-54.59,48.68h-28.13c-36.63,0-54.59-17.25-54.59-48.68V929.77c0-31.44,18-48.69,54.59-48.69h28.13c36.63,0,54.59,17.25,54.59,48.69Zm-100-1.9c0,14.18,6.62,20.33,22.45,20.33h17.73c15.83,0,22.45-6.15,22.45-20.33V931.66c0-14.18-6.62-20.33-22.45-20.33h-17.73c-15.83,0-22.45,6.15-22.45,20.33Z" transform="translate(-632.15 -788.93)"/><path class="cls-3" d="M1236.18,979.87c3.31,0,5.2-1.89,5.2-5.2v-1.89c0-3.55-1.42-5-5.2-6.15l-42.77-11.34c-19.62-5.2-29.31-17-29.31-35.45v-5.2c0-18.43,14.42-31.43,35.22-31.43H1274l-2.84,20.56c-1,6.62-4.25,9.45-11.11,9.45h-53.88a4.59,4.59,0,0,0-5,5v1.65c0,3.31,1.41,4.73,5,5.67l43.25,11.58c20.08,5.44,29.3,16.31,29.3,35v7.33c0,18.19-13.94,30.48-35,30.48h-81.54l2.84-20.56c.94-6.62,4.25-9.45,11.11-9.45Z" transform="translate(-632.15 -788.93)"/><path class="cls-3" d="M1287,931c0-32.62,18.19-49.87,57-49.87h13c38.76,0,57.19,17.25,57.19,49.87v17.49c0,6.85-3.31,10.16-10.63,10.16h-80.36v2.13c0,13.47,6.39,19.14,21.75,19.14h51c6.86,0,10.17,2.83,11.11,9.45l2.84,20.56h-65.94c-39,0-57-16.54-57-48.92Zm91.69,2.6v-3.07c0-14-5.91-19.38-22.21-19.38h-11.11c-16.31,0-22.22,5.43-22.22,19.38v3.07Z" transform="translate(-632.15 -788.93)"/><path class="cls-3" d="M1430.43,837.13h37.34v172.75h-37.34Z" transform="translate(-632.15 -788.93)"/><path class="cls-3" d="M1510,808.51a4.69,4.69,0,0,0,1.94-1.64,6.32,6.32,0,0,0,1.18-3.84,6.84,6.84,0,0,0-.53-2.79,5.57,5.57,0,0,0-1.65-2.12,5.81,5.81,0,0,0-2.61-1.11c-.26,0-.51-.06-.76-.06a4.44,4.44,0,0,0-.6,0h-7.55v19.26H1502v-7h5.36l3.42,7h3Zm-2-2a2.38,2.38,0,0,1-.53.11H1502v-7.18h4.86a5.15,5.15,0,0,1,.54,0,4.52,4.52,0,0,1,.53.06,3,3,0,0,1,1.41.72,3.8,3.8,0,0,1,.84,1.22,4.31,4.31,0,0,1,.26,1.57,4,4,0,0,1-.26,1.55,3.5,3.5,0,0,1-.84,1.22A2.78,2.78,0,0,1,1507.94,806.51Zm2,2a4.69,4.69,0,0,0,1.94-1.64,6.32,6.32,0,0,0,1.18-3.84,6.84,6.84,0,0,0-.53-2.79,5.57,5.57,0,0,0-1.65-2.12,5.81,5.81,0,0,0-2.61-1.11c-.26,0-.51-.06-.76-.06a4.44,4.44,0,0,0-.6,0h-7.55v19.26H1502v-7h5.36l3.42,7h3Zm-2-2a2.38,2.38,0,0,1-.53.11H1502v-7.18h4.86a5.15,5.15,0,0,1,.54,0,4.52,4.52,0,0,1,.53.06,3,3,0,0,1,1.41.72,3.8,3.8,0,0,1,.84,1.22,4.31,4.31,0,0,1,.26,1.57,4,4,0,0,1-.26,1.55,3.5,3.5,0,0,1-.84,1.22A2.78,2.78,0,0,1,1507.94,806.51Zm2,2a4.69,4.69,0,0,0,1.94-1.64,6.32,6.32,0,0,0,1.18-3.84,6.84,6.84,0,0,0-.53-2.79,5.57,5.57,0,0,0-1.65-2.12,5.81,5.81,0,0,0-2.61-1.11c-.26,0-.51-.06-.76-.06a4.44,4.44,0,0,0-.6,0h-7.55v19.26H1502v-7h5.36l3.42,7h3Zm-2-2a2.38,2.38,0,0,1-.53.11H1502v-7.18h4.86a5.15,5.15,0,0,1,.54,0,4.52,4.52,0,0,1,.53.06,3,3,0,0,1,1.41.72,3.8,3.8,0,0,1,.84,1.22,4.31,4.31,0,0,1,.26,1.57,4,4,0,0,1-.26,1.55,3.5,3.5,0,0,1-.84,1.22A2.78,2.78,0,0,1,1507.94,806.51Zm2,2a4.69,4.69,0,0,0,1.94-1.64,6.32,6.32,0,0,0,1.18-3.84,6.84,6.84,0,0,0-.53-2.79,5.57,5.57,0,0,0-1.65-2.12,5.81,5.81,0,0,0-2.61-1.11c-.26,0-.51-.06-.76-.06a4.44,4.44,0,0,0-.6,0h-7.55v19.26H1502v-7h5.36l3.42,7h3Zm-2-2a2.38,2.38,0,0,1-.53.11H1502v-7.18h4.86a5.15,5.15,0,0,1,.54,0,4.52,4.52,0,0,1,.53.06,3,3,0,0,1,1.41.72,3.8,3.8,0,0,1,.84,1.22,4.31,4.31,0,0,1,.26,1.57,4,4,0,0,1-.26,1.55,3.5,3.5,0,0,1-.84,1.22A2.78,2.78,0,0,1,1507.94,806.51Zm2,2a4.69,4.69,0,0,0,1.94-1.64,6.32,6.32,0,0,0,1.18-3.84,6.84,6.84,0,0,0-.53-2.79,5.57,5.57,0,0,0-1.65-2.12,5.81,5.81,0,0,0-2.61-1.11c-.26,0-.51-.06-.76-.06a4.44,4.44,0,0,0-.6,0h-7.55v19.26H1502v-7h5.36l3.42,7h3Zm-2-2a2.38,2.38,0,0,1-.53.11H1502v-7.18h4.86a5.15,5.15,0,0,1,.54,0,4.52,4.52,0,0,1,.53.06,3,3,0,0,1,1.41.72,3.8,3.8,0,0,1,.84,1.22,4.31,4.31,0,0,1,.26,1.57,4,4,0,0,1-.26,1.55,3.5,3.5,0,0,1-.84,1.22A2.78,2.78,0,0,1,1507.94,806.51Zm2,2a4.69,4.69,0,0,0,1.94-1.64,6.32,6.32,0,0,0,1.18-3.84,6.84,6.84,0,0,0-.53-2.79,5.57,5.57,0,0,0-1.65-2.12,5.81,5.81,0,0,0-2.61-1.11c-.26,0-.51-.06-.76-.06a4.44,4.44,0,0,0-.6,0h-7.55v19.26H1502v-7h5.36l3.42,7h3Zm-2-2a2.38,2.38,0,0,1-.53.11H1502v-7.18h4.86a5.15,5.15,0,0,1,.54,0,4.52,4.52,0,0,1,.53.06,3,3,0,0,1,1.41.72,3.8,3.8,0,0,1,.84,1.22,4.31,4.31,0,0,1,.26,1.57,4,4,0,0,1-.26,1.55,3.5,3.5,0,0,1-.84,1.22A2.78,2.78,0,0,1,1507.94,806.51Zm2,2a4.69,4.69,0,0,0,1.94-1.64,6.32,6.32,0,0,0,1.18-3.84,6.84,6.84,0,0,0-.53-2.79,5.57,5.57,0,0,0-1.65-2.12,5.81,5.81,0,0,0-2.61-1.11c-.26,0-.51-.06-.76-.06a4.44,4.44,0,0,0-.6,0h-7.55v19.26H1502v-7h5.36l3.42,7h3Zm-2-2a2.38,2.38,0,0,1-.53.11H1502v-7.18h4.86a5.15,5.15,0,0,1,.54,0,4.52,4.52,0,0,1,.53.06,3,3,0,0,1,1.41.72,3.8,3.8,0,0,1,.84,1.22,4.31,4.31,0,0,1,.26,1.57,4,4,0,0,1-.26,1.55,3.5,3.5,0,0,1-.84,1.22A2.78,2.78,0,0,1,1507.94,806.51Zm2,2a4.69,4.69,0,0,0,1.94-1.64,6.32,6.32,0,0,0,1.18-3.84,6.84,6.84,0,0,0-.53-2.79,5.57,5.57,0,0,0-1.65-2.12,5.81,5.81,0,0,0-2.61-1.11c-.26,0-.51-.06-.76-.06a4.44,4.44,0,0,0-.6,0h-7.55v19.26H1502v-7h5.36l3.42,7h3Zm-2-2a2.38,2.38,0,0,1-.53.11H1502v-7.18h4.86a5.15,5.15,0,0,1,.54,0,4.52,4.52,0,0,1,.53.06,3,3,0,0,1,1.41.72,3.8,3.8,0,0,1,.84,1.22,4.31,4.31,0,0,1,.26,1.57,4,4,0,0,1-.26,1.55,3.5,3.5,0,0,1-.84,1.22A2.78,2.78,0,0,1,1507.94,806.51Zm2,2a4.69,4.69,0,0,0,1.94-1.64,6.32,6.32,0,0,0,1.18-3.84,6.84,6.84,0,0,0-.53-2.79,5.57,5.57,0,0,0-1.65-2.12,5.81,5.81,0,0,0-2.61-1.11c-.26,0-.51-.06-.76-.06a4.44,4.44,0,0,0-.6,0h-7.55v19.26H1502v-7h5.36l3.42,7h3Zm-2-2a2.38,2.38,0,0,1-.53.11H1502v-7.18h4.86a5.15,5.15,0,0,1,.54,0,4.52,4.52,0,0,1,.53.06,3,3,0,0,1,1.41.72,3.8,3.8,0,0,1,.84,1.22,4.31,4.31,0,0,1,.26,1.57,4,4,0,0,1-.26,1.55,3.5,3.5,0,0,1-.84,1.22A2.78,2.78,0,0,1,1507.94,806.51Zm2,2a4.69,4.69,0,0,0,1.94-1.64,6.32,6.32,0,0,0,1.18-3.84,6.84,6.84,0,0,0-.53-2.79,5.57,5.57,0,0,0-1.65-2.12,5.81,5.81,0,0,0-2.61-1.11c-.26,0-.51-.06-.76-.06a4.44,4.44,0,0,0-.6,0h-7.55v19.26H1502v-7h5.36l3.42,7h3Zm-2-2a2.38,2.38,0,0,1-.53.11H1502v-7.18h4.86a5.15,5.15,0,0,1,.54,0,4.52,4.52,0,0,1,.53.06,3,3,0,0,1,1.41.72,3.8,3.8,0,0,1,.84,1.22,4.31,4.31,0,0,1,.26,1.57,4,4,0,0,1-.26,1.55,3.5,3.5,0,0,1-.84,1.22A2.78,2.78,0,0,1,1507.94,806.51Zm2,2a4.69,4.69,0,0,0,1.94-1.64,6.32,6.32,0,0,0,1.18-3.84,6.84,6.84,0,0,0-.53-2.79,5.57,5.57,0,0,0-1.65-2.12,5.81,5.81,0,0,0-2.61-1.11c-.26,0-.51-.06-.76-.06a4.44,4.44,0,0,0-.6,0h-7.55v19.26H1502v-7h5.36l3.42,7h3Zm-2-2a2.38,2.38,0,0,1-.53.11H1502v-7.18h4.86a5.15,5.15,0,0,1,.54,0,4.52,4.52,0,0,1,.53.06,3,3,0,0,1,1.41.72,3.8,3.8,0,0,1,.84,1.22,4.31,4.31,0,0,1,.26,1.57,4,4,0,0,1-.26,1.55,3.5,3.5,0,0,1-.84,1.22A2.78,2.78,0,0,1,1507.94,806.51Zm2,2a4.69,4.69,0,0,0,1.94-1.64,6.32,6.32,0,0,0,1.18-3.84,6.84,6.84,0,0,0-.53-2.79,5.57,5.57,0,0,0-1.65-2.12,5.81,5.81,0,0,0-2.61-1.11c-.26,0-.51-.06-.76-.06a4.44,4.44,0,0,0-.6,0h-7.55v19.26H1502v-7h5.36l3.42,7h3Zm-2-2a2.38,2.38,0,0,1-.53.11H1502v-7.18h4.86a5.15,5.15,0,0,1,.54,0,4.52,4.52,0,0,1,.53.06,3,3,0,0,1,1.41.72,3.8,3.8,0,0,1,.84,1.22,4.31,4.31,0,0,1,.26,1.57,4,4,0,0,1-.26,1.55,3.5,3.5,0,0,1-.84,1.22A2.78,2.78,0,0,1,1507.94,806.51Zm2,2a4.69,4.69,0,0,0,1.94-1.64,6.32,6.32,0,0,0,1.18-3.84,6.84,6.84,0,0,0-.53-2.79,5.57,5.57,0,0,0-1.65-2.12,5.81,5.81,0,0,0-2.61-1.11c-.26,0-.51-.06-.76-.06a4.44,4.44,0,0,0-.6,0h-7.55v19.26H1502v-7h5.36l3.42,7h3Zm-2-2a2.38,2.38,0,0,1-.53.11H1502v-7.18h4.86a5.15,5.15,0,0,1,.54,0,4.52,4.52,0,0,1,.53.06,3,3,0,0,1,1.41.72,3.8,3.8,0,0,1,.84,1.22,4.31,4.31,0,0,1,.26,1.57,4,4,0,0,1-.26,1.55,3.5,3.5,0,0,1-.84,1.22A2.78,2.78,0,0,1,1507.94,806.51Zm2,2a4.69,4.69,0,0,0,1.94-1.64,6.32,6.32,0,0,0,1.18-3.84,6.84,6.84,0,0,0-.53-2.79,5.57,5.57,0,0,0-1.65-2.12,5.81,5.81,0,0,0-2.61-1.11c-.26,0-.51-.06-.76-.06a4.44,4.44,0,0,0-.6,0h-7.55v19.26H1502v-7h5.36l3.42,7h3Zm-2-2a2.38,2.38,0,0,1-.53.11H1502v-7.18h4.86a5.15,5.15,0,0,1,.54,0,4.52,4.52,0,0,1,.53.06,3,3,0,0,1,1.41.72,3.8,3.8,0,0,1,.84,1.22,4.31,4.31,0,0,1,.26,1.57,4,4,0,0,1-.26,1.55,3.5,3.5,0,0,1-.84,1.22A2.78,2.78,0,0,1,1507.94,806.51Zm2,2a4.69,4.69,0,0,0,1.94-1.64,6.32,6.32,0,0,0,1.18-3.84,6.84,6.84,0,0,0-.53-2.79,5.57,5.57,0,0,0-1.65-2.12,5.81,5.81,0,0,0-2.61-1.11c-.26,0-.51-.06-.76-.06a4.44,4.44,0,0,0-.6,0h-7.55v19.26H1502v-7h5.36l3.42,7h3Zm-2-2a2.38,2.38,0,0,1-.53.11H1502v-7.18h4.86a5.15,5.15,0,0,1,.54,0,4.52,4.52,0,0,1,.53.06,3,3,0,0,1,1.41.72,3.8,3.8,0,0,1,.84,1.22,4.31,4.31,0,0,1,.26,1.57,4,4,0,0,1-.26,1.55,3.5,3.5,0,0,1-.84,1.22A2.78,2.78,0,0,1,1507.94,806.51Zm2,2a4.69,4.69,0,0,0,1.94-1.64,6.32,6.32,0,0,0,1.18-3.84,6.84,6.84,0,0,0-.53-2.79,5.57,5.57,0,0,0-1.65-2.12,5.81,5.81,0,0,0-2.61-1.11c-.26,0-.51-.06-.76-.06a4.44,4.44,0,0,0-.6,0h-7.55v19.26H1502v-7h5.36l3.42,7h3Zm-2-2a2.38,2.38,0,0,1-.53.11H1502v-7.18h4.86a5.15,5.15,0,0,1,.54,0,4.52,4.52,0,0,1,.53.06,3,3,0,0,1,1.41.72,3.8,3.8,0,0,1,.84,1.22,4.31,4.31,0,0,1,.26,1.57,4,4,0,0,1-.26,1.55,3.5,3.5,0,0,1-.84,1.22A2.78,2.78,0,0,1,1507.94,806.51Zm2,2a4.69,4.69,0,0,0,1.94-1.64,6.32,6.32,0,0,0,1.18-3.84,6.84,6.84,0,0,0-.53-2.79,5.57,5.57,0,0,0-1.65-2.12,5.81,5.81,0,0,0-2.61-1.11c-.26,0-.51-.06-.76-.06a4.44,4.44,0,0,0-.6,0h-7.55v19.26H1502v-7h5.36l3.42,7h3Zm-2-2a2.38,2.38,0,0,1-.53.11H1502v-7.18h4.86a5.15,5.15,0,0,1,.54,0,4.52,4.52,0,0,1,.53.06,3,3,0,0,1,1.41.72,3.8,3.8,0,0,1,.84,1.22,4.31,4.31,0,0,1,.26,1.57,4,4,0,0,1-.26,1.55,3.5,3.5,0,0,1-.84,1.22A2.78,2.78,0,0,1,1507.94,806.51Zm2,2a4.69,4.69,0,0,0,1.94-1.64,6.32,6.32,0,0,0,1.18-3.84,6.84,6.84,0,0,0-.53-2.79,5.57,5.57,0,0,0-1.65-2.12,5.81,5.81,0,0,0-2.61-1.11c-.26,0-.51-.06-.76-.06a4.44,4.44,0,0,0-.6,0h-7.55v19.26H1502v-7h5.36l3.42,7h3Zm-2-2a2.38,2.38,0,0,1-.53.11H1502v-7.18h4.86a5.15,5.15,0,0,1,.54,0,4.52,4.52,0,0,1,.53.06,3,3,0,0,1,1.41.72,3.8,3.8,0,0,1,.84,1.22,4.31,4.31,0,0,1,.26,1.57,4,4,0,0,1-.26,1.55,3.5,3.5,0,0,1-.84,1.22A2.78,2.78,0,0,1,1507.94,806.51Zm2,2a4.69,4.69,0,0,0,1.94-1.64,6.32,6.32,0,0,0,1.18-3.84,6.84,6.84,0,0,0-.53-2.79,5.57,5.57,0,0,0-1.65-2.12,5.81,5.81,0,0,0-2.61-1.11c-.26,0-.51-.06-.76-.06a4.44,4.44,0,0,0-.6,0h-7.55v19.26H1502v-7h5.36l3.42,7h3Zm-2-2a2.38,2.38,0,0,1-.53.11H1502v-7.18h4.86a5.15,5.15,0,0,1,.54,0,4.52,4.52,0,0,1,.53.06,3,3,0,0,1,1.41.72,3.8,3.8,0,0,1,.84,1.22,4.31,4.31,0,0,1,.26,1.57,4,4,0,0,1-.26,1.55,3.5,3.5,0,0,1-.84,1.22A2.78,2.78,0,0,1,1507.94,806.51Zm2,2a4.69,4.69,0,0,0,1.94-1.64,6.32,6.32,0,0,0,1.18-3.84,6.84,6.84,0,0,0-.53-2.79,5.57,5.57,0,0,0-1.65-2.12,5.81,5.81,0,0,0-2.61-1.11c-.26,0-.51-.06-.76-.06a4.44,4.44,0,0,0-.6,0h-7.55v19.26H1502v-7h5.36l3.42,7h3Zm-2-2a2.38,2.38,0,0,1-.53.11H1502v-7.18h4.86a5.15,5.15,0,0,1,.54,0,4.52,4.52,0,0,1,.53.06,3,3,0,0,1,1.41.72,3.8,3.8,0,0,1,.84,1.22,4.31,4.31,0,0,1,.26,1.57,4,4,0,0,1-.26,1.55,3.5,3.5,0,0,1-.84,1.22A2.78,2.78,0,0,1,1507.94,806.51Zm2,2a4.69,4.69,0,0,0,1.94-1.64,6.32,6.32,0,0,0,1.18-3.84,6.84,6.84,0,0,0-.53-2.79,5.57,5.57,0,0,0-1.65-2.12,5.81,5.81,0,0,0-2.61-1.11c-.26,0-.51-.06-.76-.06a4.44,4.44,0,0,0-.6,0h-7.55v19.26H1502v-7h5.36l3.42,7h3Zm-2-2a2.38,2.38,0,0,1-.53.11H1502v-7.18h4.86a5.15,5.15,0,0,1,.54,0,4.52,4.52,0,0,1,.53.06,3,3,0,0,1,1.41.72,3.8,3.8,0,0,1,.84,1.22,4.31,4.31,0,0,1,.26,1.57,4,4,0,0,1-.26,1.55,3.5,3.5,0,0,1-.84,1.22A2.78,2.78,0,0,1,1507.94,806.51Zm2,2a4.69,4.69,0,0,0,1.94-1.64,6.32,6.32,0,0,0,1.18-3.84,6.84,6.84,0,0,0-.53-2.79,5.57,5.57,0,0,0-1.65-2.12,5.81,5.81,0,0,0-2.61-1.11c-.26,0-.51-.06-.76-.06a4.44,4.44,0,0,0-.6,0h-7.55v19.26H1502v-7h5.36l3.42,7h3Zm-2-2a2.38,2.38,0,0,1-.53.11H1502v-7.18h4.86a5.15,5.15,0,0,1,.54,0,4.52,4.52,0,0,1,.53.06,3,3,0,0,1,1.41.72,3.8,3.8,0,0,1,.84,1.22,4.31,4.31,0,0,1,.26,1.57,4,4,0,0,1-.26,1.55,3.5,3.5,0,0,1-.84,1.22A2.78,2.78,0,0,1,1507.94,806.51Zm2,2a4.69,4.69,0,0,0,1.94-1.64,6.32,6.32,0,0,0,1.18-3.84,6.84,6.84,0,0,0-.53-2.79,5.57,5.57,0,0,0-1.65-2.12,5.81,5.81,0,0,0-2.61-1.11c-.26,0-.51-.06-.76-.06a4.44,4.44,0,0,0-.6,0h-7.55v19.26H1502v-7h5.36l3.42,7h3Zm-2-2a2.38,2.38,0,0,1-.53.11H1502v-7.18h4.86a5.15,5.15,0,0,1,.54,0,4.52,4.52,0,0,1,.53.06,3,3,0,0,1,1.41.72,3.8,3.8,0,0,1,.84,1.22,4.31,4.31,0,0,1,.26,1.57,4,4,0,0,1-.26,1.55,3.5,3.5,0,0,1-.84,1.22A2.78,2.78,0,0,1,1507.94,806.51Zm2,2a4.69,4.69,0,0,0,1.94-1.64,6.32,6.32,0,0,0,1.18-3.84,6.84,6.84,0,0,0-.53-2.79,5.57,5.57,0,0,0-1.65-2.12,5.81,5.81,0,0,0-2.61-1.11c-.26,0-.51-.06-.76-.06a4.44,4.44,0,0,0-.6,0h-7.55v19.26H1502v-7h5.36l3.42,7h3Zm-2-2a2.38,2.38,0,0,1-.53.11H1502v-7.18h4.86a5.15,5.15,0,0,1,.54,0,4.52,4.52,0,0,1,.53.06,3,3,0,0,1,1.41.72,3.8,3.8,0,0,1,.84,1.22,4.31,4.31,0,0,1,.26,1.57,4,4,0,0,1-.26,1.55,3.5,3.5,0,0,1-.84,1.22A2.78,2.78,0,0,1,1507.94,806.51Zm2,2a4.69,4.69,0,0,0,1.94-1.64,6.32,6.32,0,0,0,1.18-3.84,6.84,6.84,0,0,0-.53-2.79,5.57,5.57,0,0,0-1.65-2.12,5.81,5.81,0,0,0-2.61-1.11c-.26,0-.51-.06-.76-.06a4.44,4.44,0,0,0-.6,0h-7.55v19.26H1502v-7h5.36l3.42,7h3Zm-2-2a2.38,2.38,0,0,1-.53.11H1502v-7.18h4.86a5.15,5.15,0,0,1,.54,0,4.52,4.52,0,0,1,.53.06,3,3,0,0,1,1.41.72,3.8,3.8,0,0,1,.84,1.22,4.31,4.31,0,0,1,.26,1.57,4,4,0,0,1-.26,1.55,3.5,3.5,0,0,1-.84,1.22A2.78,2.78,0,0,1,1507.94,806.51Zm12.93-8.78a15.82,15.82,0,0,0-6.56-6.53,18,18,0,0,0-8.69-2.27,17.79,17.79,0,0,0-8.66,2.27,16,16,0,0,0-6.62,6.53,17.68,17.68,0,0,0,0,17.6,16.72,16.72,0,0,0,6.54,6.54,18,18,0,0,0,8.79,2.32,17.79,17.79,0,0,0,8.77-2.32,16.29,16.29,0,0,0,6.52-6.54,17.52,17.52,0,0,0,0-17.6Zm-2.49,16.14a13.52,13.52,0,0,1-5.44,5.42,14.46,14.46,0,0,1-14.64,0,13.5,13.5,0,0,1-5.46-5.42,14.58,14.58,0,0,1,0-14.67,13.78,13.78,0,0,1,5.5-5.47,15.13,15.13,0,0,1,7.24-1.91,15.3,15.3,0,0,1,7.23,1.91,14,14,0,0,1,5.52,5.47,15,15,0,0,1,2,7.37A14.7,14.7,0,0,1,1518.38,813.87Zm-6.46-7a6.32,6.32,0,0,0,1.18-3.84,6.84,6.84,0,0,0-.53-2.79,5.57,5.57,0,0,0-1.65-2.12,5.81,5.81,0,0,0-2.61-1.11c-.26,0-.51-.06-.76-.06a4.44,4.44,0,0,0-.6,0h-7.55v19.26H1502v-7h5.36l3.42,7h3l-3.77-7.67A4.69,4.69,0,0,0,1511.92,806.87Zm-4-.36a2.38,2.38,0,0,1-.53.11H1502v-7.18h4.86a5.15,5.15,0,0,1,.54,0,4.52,4.52,0,0,1,.53.06,3,3,0,0,1,1.41.72,3.8,3.8,0,0,1,.84,1.22,4.31,4.31,0,0,1,.26,1.57,4,4,0,0,1-.26,1.55,3.5,3.5,0,0,1-.84,1.22A2.78,2.78,0,0,1,1507.94,806.51Zm2,2a4.69,4.69,0,0,0,1.94-1.64,6.32,6.32,0,0,0,1.18-3.84,6.84,6.84,0,0,0-.53-2.79,5.57,5.57,0,0,0-1.65-2.12,5.81,5.81,0,0,0-2.61-1.11c-.26,0-.51-.06-.76-.06a4.44,4.44,0,0,0-.6,0h-7.55v19.26H1502v-7h5.36l3.42,7h3Zm-2-2a2.38,2.38,0,0,1-.53.11H1502v-7.18h4.86a5.15,5.15,0,0,1,.54,0,4.52,4.52,0,0,1,.53.06,3,3,0,0,1,1.41.72,3.8,3.8,0,0,1,.84,1.22,4.31,4.31,0,0,1,.26,1.57,4,4,0,0,1-.26,1.55,3.5,3.5,0,0,1-.84,1.22A2.78,2.78,0,0,1,1507.94,806.51Zm2,2a4.69,4.69,0,0,0,1.94-1.64,6.32,6.32,0,0,0,1.18-3.84,6.84,6.84,0,0,0-.53-2.79,5.57,5.57,0,0,0-1.65-2.12,5.81,5.81,0,0,0-2.61-1.11c-.26,0-.51-.06-.76-.06a4.44,4.44,0,0,0-.6,0h-7.55v19.26H1502v-7h5.36l3.42,7h3Zm-2-2a2.38,2.38,0,0,1-.53.11H1502v-7.18h4.86a5.15,5.15,0,0,1,.54,0,4.52,4.52,0,0,1,.53.06,3,3,0,0,1,1.41.72,3.8,3.8,0,0,1,.84,1.22,4.31,4.31,0,0,1,.26,1.57,4,4,0,0,1-.26,1.55,3.5,3.5,0,0,1-.84,1.22A2.78,2.78,0,0,1,1507.94,806.51Zm2,2a4.69,4.69,0,0,0,1.94-1.64,6.32,6.32,0,0,0,1.18-3.84,6.84,6.84,0,0,0-.53-2.79,5.57,5.57,0,0,0-1.65-2.12,5.81,5.81,0,0,0-2.61-1.11c-.26,0-.51-.06-.76-.06a4.44,4.44,0,0,0-.6,0h-7.55v19.26H1502v-7h5.36l3.42,7h3Zm-2-2a2.38,2.38,0,0,1-.53.11H1502v-7.18h4.86a5.15,5.15,0,0,1,.54,0,4.52,4.52,0,0,1,.53.06,3,3,0,0,1,1.41.72,3.8,3.8,0,0,1,.84,1.22,4.31,4.31,0,0,1,.26,1.57,4,4,0,0,1-.26,1.55,3.5,3.5,0,0,1-.84,1.22A2.78,2.78,0,0,1,1507.94,806.51Zm2,2a4.69,4.69,0,0,0,1.94-1.64,6.32,6.32,0,0,0,1.18-3.84,6.84,6.84,0,0,0-.53-2.79,5.57,5.57,0,0,0-1.65-2.12,5.81,5.81,0,0,0-2.61-1.11c-.26,0-.51-.06-.76-.06a4.44,4.44,0,0,0-.6,0h-7.55v19.26H1502v-7h5.36l3.42,7h3Zm-2-2a2.38,2.38,0,0,1-.53.11H1502v-7.18h4.86a5.15,5.15,0,0,1,.54,0,4.52,4.52,0,0,1,.53.06,3,3,0,0,1,1.41.72,3.8,3.8,0,0,1,.84,1.22,4.31,4.31,0,0,1,.26,1.57,4,4,0,0,1-.26,1.55,3.5,3.5,0,0,1-.84,1.22A2.78,2.78,0,0,1,1507.94,806.51Zm2,2a4.69,4.69,0,0,0,1.94-1.64,6.32,6.32,0,0,0,1.18-3.84,6.84,6.84,0,0,0-.53-2.79,5.57,5.57,0,0,0-1.65-2.12,5.81,5.81,0,0,0-2.61-1.11c-.26,0-.51-.06-.76-.06a4.44,4.44,0,0,0-.6,0h-7.55v19.26H1502v-7h5.36l3.42,7h3Zm-2-2a2.38,2.38,0,0,1-.53.11H1502v-7.18h4.86a5.15,5.15,0,0,1,.54,0,4.52,4.52,0,0,1,.53.06,3,3,0,0,1,1.41.72,3.8,3.8,0,0,1,.84,1.22,4.31,4.31,0,0,1,.26,1.57,4,4,0,0,1-.26,1.55,3.5,3.5,0,0,1-.84,1.22A2.78,2.78,0,0,1,1507.94,806.51Zm2,2a4.69,4.69,0,0,0,1.94-1.64,6.32,6.32,0,0,0,1.18-3.84,6.84,6.84,0,0,0-.53-2.79,5.57,5.57,0,0,0-1.65-2.12,5.81,5.81,0,0,0-2.61-1.11c-.26,0-.51-.06-.76-.06a4.44,4.44,0,0,0-.6,0h-7.55v19.26H1502v-7h5.36l3.42,7h3Zm-2-2a2.38,2.38,0,0,1-.53.11H1502v-7.18h4.86a5.15,5.15,0,0,1,.54,0,4.52,4.52,0,0,1,.53.06,3,3,0,0,1,1.41.72,3.8,3.8,0,0,1,.84,1.22,4.31,4.31,0,0,1,.26,1.57,4,4,0,0,1-.26,1.55,3.5,3.5,0,0,1-.84,1.22A2.78,2.78,0,0,1,1507.94,806.51Zm2,2a4.69,4.69,0,0,0,1.94-1.64,6.32,6.32,0,0,0,1.18-3.84,6.84,6.84,0,0,0-.53-2.79,5.57,5.57,0,0,0-1.65-2.12,5.81,5.81,0,0,0-2.61-1.11c-.26,0-.51-.06-.76-.06a4.44,4.44,0,0,0-.6,0h-7.55v19.26H1502v-7h5.36l3.42,7h3Zm-2-2a2.38,2.38,0,0,1-.53.11H1502v-7.18h4.86a5.15,5.15,0,0,1,.54,0,4.52,4.52,0,0,1,.53.06,3,3,0,0,1,1.41.72,3.8,3.8,0,0,1,.84,1.22,4.31,4.31,0,0,1,.26,1.57,4,4,0,0,1-.26,1.55,3.5,3.5,0,0,1-.84,1.22A2.78,2.78,0,0,1,1507.94,806.51Zm2,2a4.69,4.69,0,0,0,1.94-1.64,6.32,6.32,0,0,0,1.18-3.84,6.84,6.84,0,0,0-.53-2.79,5.57,5.57,0,0,0-1.65-2.12,5.81,5.81,0,0,0-2.61-1.11c-.26,0-.51-.06-.76-.06a4.44,4.44,0,0,0-.6,0h-7.55v19.26H1502v-7h5.36l3.42,7h3Zm-2-2a2.38,2.38,0,0,1-.53.11H1502v-7.18h4.86a5.15,5.15,0,0,1,.54,0,4.52,4.52,0,0,1,.53.06,3,3,0,0,1,1.41.72,3.8,3.8,0,0,1,.84,1.22,4.31,4.31,0,0,1,.26,1.57,4,4,0,0,1-.26,1.55,3.5,3.5,0,0,1-.84,1.22A2.78,2.78,0,0,1,1507.94,806.51Zm2,2a4.69,4.69,0,0,0,1.94-1.64,6.32,6.32,0,0,0,1.18-3.84,6.84,6.84,0,0,0-.53-2.79,5.57,5.57,0,0,0-1.65-2.12,5.81,5.81,0,0,0-2.61-1.11c-.26,0-.51-.06-.76-.06a4.44,4.44,0,0,0-.6,0h-7.55v19.26H1502v-7h5.36l3.42,7h3Zm-2-2a2.38,2.38,0,0,1-.53.11H1502v-7.18h4.86a5.15,5.15,0,0,1,.54,0,4.52,4.52,0,0,1,.53.06,3,3,0,0,1,1.41.72,3.8,3.8,0,0,1,.84,1.22,4.31,4.31,0,0,1,.26,1.57,4,4,0,0,1-.26,1.55,3.5,3.5,0,0,1-.84,1.22A2.78,2.78,0,0,1,1507.94,806.51Zm2,2a4.69,4.69,0,0,0,1.94-1.64,6.32,6.32,0,0,0,1.18-3.84,6.84,6.84,0,0,0-.53-2.79,5.57,5.57,0,0,0-1.65-2.12,5.81,5.81,0,0,0-2.61-1.11c-.26,0-.51-.06-.76-.06a4.44,4.44,0,0,0-.6,0h-7.55v19.26H1502v-7h5.36l3.42,7h3Zm-2-2a2.38,2.38,0,0,1-.53.11H1502v-7.18h4.86a5.15,5.15,0,0,1,.54,0,4.52,4.52,0,0,1,.53.06,3,3,0,0,1,1.41.72,3.8,3.8,0,0,1,.84,1.22,4.31,4.31,0,0,1,.26,1.57,4,4,0,0,1-.26,1.55,3.5,3.5,0,0,1-.84,1.22A2.78,2.78,0,0,1,1507.94,806.51Zm2,2a4.69,4.69,0,0,0,1.94-1.64,6.32,6.32,0,0,0,1.18-3.84,6.84,6.84,0,0,0-.53-2.79,5.57,5.57,0,0,0-1.65-2.12,5.81,5.81,0,0,0-2.61-1.11c-.26,0-.51-.06-.76-.06a4.44,4.44,0,0,0-.6,0h-7.55v19.26H1502v-7h5.36l3.42,7h3Zm-2-2a2.38,2.38,0,0,1-.53.11H1502v-7.18h4.86a5.15,5.15,0,0,1,.54,0,4.52,4.52,0,0,1,.53.06,3,3,0,0,1,1.41.72,3.8,3.8,0,0,1,.84,1.22,4.31,4.31,0,0,1,.26,1.57,4,4,0,0,1-.26,1.55,3.5,3.5,0,0,1-.84,1.22A2.78,2.78,0,0,1,1507.94,806.51Zm2,2a4.69,4.69,0,0,0,1.94-1.64,6.32,6.32,0,0,0,1.18-3.84,6.84,6.84,0,0,0-.53-2.79,5.57,5.57,0,0,0-1.65-2.12,5.81,5.81,0,0,0-2.61-1.11c-.26,0-.51-.06-.76-.06a4.44,4.44,0,0,0-.6,0h-7.55v19.26H1502v-7h5.36l3.42,7h3Zm-2-2a2.38,2.38,0,0,1-.53.11H1502v-7.18h4.86a5.15,5.15,0,0,1,.54,0,4.52,4.52,0,0,1,.53.06,3,3,0,0,1,1.41.72,3.8,3.8,0,0,1,.84,1.22,4.31,4.31,0,0,1,.26,1.57,4,4,0,0,1-.26,1.55,3.5,3.5,0,0,1-.84,1.22A2.78,2.78,0,0,1,1507.94,806.51Zm2,2a4.69,4.69,0,0,0,1.94-1.64,6.32,6.32,0,0,0,1.18-3.84,6.84,6.84,0,0,0-.53-2.79,5.57,5.57,0,0,0-1.65-2.12,5.81,5.81,0,0,0-2.61-1.11c-.26,0-.51-.06-.76-.06a4.44,4.44,0,0,0-.6,0h-7.55v19.26H1502v-7h5.36l3.42,7h3Zm-2-2a2.38,2.38,0,0,1-.53.11H1502v-7.18h4.86a5.15,5.15,0,0,1,.54,0,4.52,4.52,0,0,1,.53.06,3,3,0,0,1,1.41.72,3.8,3.8,0,0,1,.84,1.22,4.31,4.31,0,0,1,.26,1.57,4,4,0,0,1-.26,1.55,3.5,3.5,0,0,1-.84,1.22A2.78,2.78,0,0,1,1507.94,806.51Zm2,2a4.69,4.69,0,0,0,1.94-1.64,6.32,6.32,0,0,0,1.18-3.84,6.84,6.84,0,0,0-.53-2.79,5.57,5.57,0,0,0-1.65-2.12,5.81,5.81,0,0,0-2.61-1.11c-.26,0-.51-.06-.76-.06a4.44,4.44,0,0,0-.6,0h-7.55v19.26H1502v-7h5.36l3.42,7h3Zm-2-2a2.38,2.38,0,0,1-.53.11H1502v-7.18h4.86a5.15,5.15,0,0,1,.54,0,4.52,4.52,0,0,1,.53.06,3,3,0,0,1,1.41.72,3.8,3.8,0,0,1,.84,1.22,4.31,4.31,0,0,1,.26,1.57,4,4,0,0,1-.26,1.55,3.5,3.5,0,0,1-.84,1.22A2.78,2.78,0,0,1,1507.94,806.51Zm2,2a4.69,4.69,0,0,0,1.94-1.64,6.32,6.32,0,0,0,1.18-3.84,6.84,6.84,0,0,0-.53-2.79,5.57,5.57,0,0,0-1.65-2.12,5.81,5.81,0,0,0-2.61-1.11c-.26,0-.51-.06-.76-.06a4.44,4.44,0,0,0-.6,0h-7.55v19.26H1502v-7h5.36l3.42,7h3Zm-2-2a2.38,2.38,0,0,1-.53.11H1502v-7.18h4.86a5.15,5.15,0,0,1,.54,0,4.52,4.52,0,0,1,.53.06,3,3,0,0,1,1.41.72,3.8,3.8,0,0,1,.84,1.22,4.31,4.31,0,0,1,.26,1.57,4,4,0,0,1-.26,1.55,3.5,3.5,0,0,1-.84,1.22A2.78,2.78,0,0,1,1507.94,806.51Zm2,2a4.69,4.69,0,0,0,1.94-1.64,6.32,6.32,0,0,0,1.18-3.84,6.84,6.84,0,0,0-.53-2.79,5.57,5.57,0,0,0-1.65-2.12,5.81,5.81,0,0,0-2.61-1.11c-.26,0-.51-.06-.76-.06a4.44,4.44,0,0,0-.6,0h-7.55v19.26H1502v-7h5.36l3.42,7h3Zm-2-2a2.38,2.38,0,0,1-.53.11H1502v-7.18h4.86a5.15,5.15,0,0,1,.54,0,4.52,4.52,0,0,1,.53.06,3,3,0,0,1,1.41.72,3.8,3.8,0,0,1,.84,1.22,4.31,4.31,0,0,1,.26,1.57,4,4,0,0,1-.26,1.55,3.5,3.5,0,0,1-.84,1.22A2.78,2.78,0,0,1,1507.94,806.51Zm2,2a4.69,4.69,0,0,0,1.94-1.64,6.32,6.32,0,0,0,1.18-3.84,6.84,6.84,0,0,0-.53-2.79,5.57,5.57,0,0,0-1.65-2.12,5.81,5.81,0,0,0-2.61-1.11c-.26,0-.51-.06-.76-.06a4.44,4.44,0,0,0-.6,0h-7.55v19.26H1502v-7h5.36l3.42,7h3Zm-2-2a2.38,2.38,0,0,1-.53.11H1502v-7.18h4.86a5.15,5.15,0,0,1,.54,0,4.52,4.52,0,0,1,.53.06,3,3,0,0,1,1.41.72,3.8,3.8,0,0,1,.84,1.22,4.31,4.31,0,0,1,.26,1.57,4,4,0,0,1-.26,1.55,3.5,3.5,0,0,1-.84,1.22A2.78,2.78,0,0,1,1507.94,806.51Zm2,2a4.69,4.69,0,0,0,1.94-1.64,6.32,6.32,0,0,0,1.18-3.84,6.84,6.84,0,0,0-.53-2.79,5.57,5.57,0,0,0-1.65-2.12,5.81,5.81,0,0,0-2.61-1.11c-.26,0-.51-.06-.76-.06a4.44,4.44,0,0,0-.6,0h-7.55v19.26H1502v-7h5.36l3.42,7h3Zm-2-2a2.38,2.38,0,0,1-.53.11H1502v-7.18h4.86a5.15,5.15,0,0,1,.54,0,4.52,4.52,0,0,1,.53.06,3,3,0,0,1,1.41.72,3.8,3.8,0,0,1,.84,1.22,4.31,4.31,0,0,1,.26,1.57,4,4,0,0,1-.26,1.55,3.5,3.5,0,0,1-.84,1.22A2.78,2.78,0,0,1,1507.94,806.51Zm2,2a4.69,4.69,0,0,0,1.94-1.64,6.32,6.32,0,0,0,1.18-3.84,6.84,6.84,0,0,0-.53-2.79,5.57,5.57,0,0,0-1.65-2.12,5.81,5.81,0,0,0-2.61-1.11c-.26,0-.51-.06-.76-.06a4.44,4.44,0,0,0-.6,0h-7.55v19.26H1502v-7h5.36l3.42,7h3Zm-2-2a2.38,2.38,0,0,1-.53.11H1502v-7.18h4.86a5.15,5.15,0,0,1,.54,0,4.52,4.52,0,0,1,.53.06,3,3,0,0,1,1.41.72,3.8,3.8,0,0,1,.84,1.22,4.31,4.31,0,0,1,.26,1.57,4,4,0,0,1-.26,1.55,3.5,3.5,0,0,1-.84,1.22A2.78,2.78,0,0,1,1507.94,806.51Zm2,2a4.69,4.69,0,0,0,1.94-1.64,6.32,6.32,0,0,0,1.18-3.84,6.84,6.84,0,0,0-.53-2.79,5.57,5.57,0,0,0-1.65-2.12,5.81,5.81,0,0,0-2.61-1.11c-.26,0-.51-.06-.76-.06a4.44,4.44,0,0,0-.6,0h-7.55v19.26H1502v-7h5.36l3.42,7h3Zm-2-2a2.38,2.38,0,0,1-.53.11H1502v-7.18h4.86a5.15,5.15,0,0,1,.54,0,4.52,4.52,0,0,1,.53.06,3,3,0,0,1,1.41.72,3.8,3.8,0,0,1,.84,1.22,4.31,4.31,0,0,1,.26,1.57,4,4,0,0,1-.26,1.55,3.5,3.5,0,0,1-.84,1.22A2.78,2.78,0,0,1,1507.94,806.51Zm2,2a4.69,4.69,0,0,0,1.94-1.64,6.32,6.32,0,0,0,1.18-3.84,6.84,6.84,0,0,0-.53-2.79,5.57,5.57,0,0,0-1.65-2.12,5.81,5.81,0,0,0-2.61-1.11c-.26,0-.51-.06-.76-.06a4.44,4.44,0,0,0-.6,0h-7.55v19.26H1502v-7h5.36l3.42,7h3Zm-2-2a2.38,2.38,0,0,1-.53.11H1502v-7.18h4.86a5.15,5.15,0,0,1,.54,0,4.52,4.52,0,0,1,.53.06,3,3,0,0,1,1.41.72,3.8,3.8,0,0,1,.84,1.22,4.31,4.31,0,0,1,.26,1.57,4,4,0,0,1-.26,1.55,3.5,3.5,0,0,1-.84,1.22A2.78,2.78,0,0,1,1507.94,806.51Zm2,2a4.69,4.69,0,0,0,1.94-1.64,6.32,6.32,0,0,0,1.18-3.84,6.84,6.84,0,0,0-.53-2.79,5.57,5.57,0,0,0-1.65-2.12,5.81,5.81,0,0,0-2.61-1.11c-.26,0-.51-.06-.76-.06a4.44,4.44,0,0,0-.6,0h-7.55v19.26H1502v-7h5.36l3.42,7h3Zm-2-2a2.38,2.38,0,0,1-.53.11H1502v-7.18h4.86a5.15,5.15,0,0,1,.54,0,4.52,4.52,0,0,1,.53.06,3,3,0,0,1,1.41.72,3.8,3.8,0,0,1,.84,1.22,4.31,4.31,0,0,1,.26,1.57,4,4,0,0,1-.26,1.55,3.5,3.5,0,0,1-.84,1.22A2.78,2.78,0,0,1,1507.94,806.51Zm2,2a4.69,4.69,0,0,0,1.94-1.64,6.32,6.32,0,0,0,1.18-3.84,6.84,6.84,0,0,0-.53-2.79,5.57,5.57,0,0,0-1.65-2.12,5.81,5.81,0,0,0-2.61-1.11c-.26,0-.51-.06-.76-.06a4.44,4.44,0,0,0-.6,0h-7.55v19.26H1502v-7h5.36l3.42,7h3Zm-2-2a2.38,2.38,0,0,1-.53.11H1502v-7.18h4.86a5.15,5.15,0,0,1,.54,0,4.52,4.52,0,0,1,.53.06,3,3,0,0,1,1.41.72,3.8,3.8,0,0,1,.84,1.22,4.31,4.31,0,0,1,.26,1.57,4,4,0,0,1-.26,1.55,3.5,3.5,0,0,1-.84,1.22A2.78,2.78,0,0,1,1507.94,806.51Zm2,2a4.69,4.69,0,0,0,1.94-1.64,6.32,6.32,0,0,0,1.18-3.84,6.84,6.84,0,0,0-.53-2.79,5.57,5.57,0,0,0-1.65-2.12,5.81,5.81,0,0,0-2.61-1.11c-.26,0-.51-.06-.76-.06a4.44,4.44,0,0,0-.6,0h-7.55v19.26H1502v-7h5.36l3.42,7h3Zm-2-2a2.38,2.38,0,0,1-.53.11H1502v-7.18h4.86a5.15,5.15,0,0,1,.54,0,4.52,4.52,0,0,1,.53.06,3,3,0,0,1,1.41.72,3.8,3.8,0,0,1,.84,1.22,4.31,4.31,0,0,1,.26,1.57,4,4,0,0,1-.26,1.55,3.5,3.5,0,0,1-.84,1.22A2.78,2.78,0,0,1,1507.94,806.51Z" transform="translate(-632.15 -788.93)"/><path class="cls-3" d="M1510,808.51a4.69,4.69,0,0,0,1.94-1.64,6.32,6.32,0,0,0,1.18-3.84,6.84,6.84,0,0,0-.53-2.79,5.57,5.57,0,0,0-1.65-2.12,5.81,5.81,0,0,0-2.61-1.11c-.26,0-.51-.06-.76-.06a4.44,4.44,0,0,0-.6,0h-7.55v19.26H1502v-7h5.36l3.42,7h3Zm-2-2a2.38,2.38,0,0,1-.53.11H1502v-7.18h4.86a5.15,5.15,0,0,1,.54,0,4.52,4.52,0,0,1,.53.06,3,3,0,0,1,1.41.72,3.8,3.8,0,0,1,.84,1.22,4.31,4.31,0,0,1,.26,1.57,4,4,0,0,1-.26,1.55,3.5,3.5,0,0,1-.84,1.22A2.78,2.78,0,0,1,1507.94,806.51Z" transform="translate(-632.15 -788.93)"/><circle class="cls-4" cx="468.02" cy="174.98" r="4.3"/><circle class="cls-4" cx="457.25" cy="179.28" r="2.13"/><circle class="cls-4" cx="465.85" cy="182.96" r="1.41"/></svg>